<svg viewBox="0 0 512 512">
    <circle fill="#e17700" cx="256" cy="256" r="256"/>
    <path fill="#8d3c00" d="m503.8 191.5-78.4-60.6v27.6h-38v115h-260v28h-45l-.5 63.1 205.8 145-.3.4a256 256 0 0 0 216.4-318.5"/>
    <path fill="#2bcbda" d="M434 354.9c0 7.6-5.6 13.7-12.3 13.7H90.5c-6.7 0-12.3-6.2-12.3-13.7V144.2c0-7.6 5.6-13.8 12.3-13.8h331.2c6.7 0 12.3 6.2 12.3 13.8z"/>
    <path fill="#354C59" d="M268.6 280.2a19 19 0 0 1-22.3.1l-168-129.7v27.5l168 129.7a19 19 0 0 0 22.3-.1L434 177v-27.5z"/>
    <path fill="#EBEBEB" d="M421.7 130.4H90.5c-6.7 0-12.3 6.2-12.3 13.8v6.4l168.1 129.7a19 19 0 0 0 22.3 0L434 149.5v-5.4c0-7.6-5.6-13.8-12.3-13.8"/>
</svg>
